name C:\Users\u0101727\Documents\MyRepositories\upper-imu-dc\Results\main_mocap_tracking\Case_10\kinematics.mot
datacolumns 10
datarows 23
range 0.50000000 0.72000000
endheader 
time	clav_prot	clav_elev	scapula_abduction	scapula_elevation	scapula_upward_rot	scapula_winging	plane_elv	shoulder_elv	axial_rot	
          0.50000000	        -24.23174383	         -3.90736484	        -14.51696205	         -4.24231439	         14.50745453	          4.92226265	        -24.94666776	         12.29490153	         39.57311216	
          0.51000000	        -24.20686313	         -3.94740221	        -14.55763541	         -4.23604937	         14.44130461	          4.94073954	        -24.73509428	         12.24789611	         40.04344430	
          0.52000000	        -24.16523218	         -3.94897785	        -14.50177570	         -4.22763743	         14.41412167	          4.94854225	        -24.49993686	         12.21295591	         40.50546522	
          0.53000000	        -24.04941432	         -3.95608722	        -14.30401990	         -4.22434269	         14.40842834	          4.95320550	        -24.23489462	         12.19030117	         40.93804334	
          0.54000000	        -23.88436939	         -3.96856701	        -14.01275515	         -4.22523363	         14.41487344	          4.95620878	        -23.93127960	         12.17323308	         41.30472492	
          0.55000000	        -23.73066303	         -3.98169225	        -13.74314818	         -4.22628644	         14.41711441	          4.95966848	        -23.56153051	         12.16359421	         41.56227884	
          0.56000000	        -23.83304790	         -3.97471001	        -13.93990652	         -4.21928691	         14.38597490	          4.96550284	        -23.07091733	         12.17700785	         41.66540302	
          0.57000000	        -23.90706248	         -3.96869766	        -14.10078338	         -4.20548462	         14.33238869	          4.97704723	        -22.47784879	         12.20696576	         41.57947140	
          0.58000000	        -23.96533204	         -3.96648759	        -14.23465251	         -4.19309187	         14.27682724	          4.99021342	        -21.81349731	         12.24527295	         41.28031461	
          0.59000000	        -23.98836234	         -3.97397625	        -14.30314582	         -4.18682215	         14.22482619	          5.00568963	        -21.08194876	         12.29485280	         40.75152114	
          0.60000000	        -23.98396575	         -3.99294633	        -14.32000202	         -4.18820865	         14.17515461	          5.02440993	        -20.27827511	         12.36178805	         39.98393767	
          0.61000000	        -23.96461879	         -4.02329735	        -14.30834636	         -4.19725684	         14.12509725	          5.04698088	        -19.39775962	         12.45206059	         38.97076700	
          0.62000000	        -23.94037596	         -4.06435283	        -14.28681711	         -4.21358370	         14.07272601	          5.07363198	        -18.43884258	         12.57047871	         37.70566475	
          0.63000000	        -23.91744490	         -4.11523561	        -14.26667601	         -4.23676537	         14.01748206	          5.10422079	        -17.40280108	         12.72018168	         36.18440328	
          0.64000000	        -23.89872095	         -4.17480568	        -14.25283789	         -4.26628306	         13.96001769	          5.13824212	        -16.29291801	         12.90225885	         34.41056134	
          0.65000000	        -23.88482359	         -4.24149138	        -14.24589877	         -4.30137122	         13.90185572	          5.17484010	        -15.11412324	         13.11544235	         32.40281193	
          0.66000000	        -23.87489330	         -4.31323171	        -14.24370122	         -4.34094402	         13.84508407	          5.21285148	        -13.87303959	         13.35606766	         30.20004572	
          0.67000000	        -23.86713655	         -4.38760769	        -14.24240135	         -4.38365699	         13.79207697	          5.25090898	        -12.57790317	         13.61850719	         27.86117114	
          0.68000000	        -23.85942779	         -4.46212444	        -14.23761687	         -4.42807776	         13.74517825	          5.28760896	        -11.23801117	         13.89608913	         25.45887063	
          0.69000000	        -23.85001238	         -4.53455255	        -14.22574252	         -4.47290494	         13.70637041	          5.32170812	         -9.86283703	         14.18224209	         23.06944847	
          0.70000000	        -23.83798689	         -4.60323073	        -14.20483139	         -4.51717103	         13.67704815	          5.35228661	         -8.46122430	         14.47146152	         20.76243415	
          0.71000000	        -23.82324803	         -4.66725444	        -14.17447521	         -4.56037734	         13.65799218	          5.37882584	         -7.04091554	         14.75979906	         18.59308394	
          0.72000000	        -23.80598459	         -4.72650796	        -14.13483990	         -4.60252479	         13.64951320	          5.40119073	         -5.60832382	         15.04484312	         16.59907704	
